{
	"asset":{
		"version":"2.0",
		"generator":"Created using the official Cinema 4D glTF Exporter 1.000x284978"
	},
	"scenes":[{
		"nodes":[0,
		1,
		2]
	}],
	"nodes":[{
		"name":"Symmetry",
		"children":[3]
	},
	{
		"name":"Symmetry.2",
		"children":[4]
	},
	{
		"name":"Symmetry.1",
		"children":[5]
	},
	{
		"name":"Boole_1__2.2",
		"translation":[-3.4620089530944826,
		-3.552713678800501e-14,
		-268.0140686035156],
		"rotation":[0.0,
		0.0,
		0.0,
		-1.0],
		"scale":[1.0,
		1.0,
		1.0],
		"children":[6,
		7,
		8,
		9,
		10,
		11]
	},
	{
		"name":"Cylinder.1",
		"translation":[99.15215301513672,
		59.9069938659668,
		-420.7662353515625],
		"rotation":[0.0,
		0.0,
		0.0,
		-1.0],
		"scale":[1.0,
		1.0,
		1.0],
		"children":[12,
		13]
	},
	{
		"name":"Cylinder.1",
		"translation":[96.84425354003906,
		59.9069938659668,
		-141.72096252441407],
		"rotation":[0.0,
		0.0,
		0.0,
		-1.0],
		"scale":[1.0,
		1.0,
		1.0],
		"children":[14,
		15]
	},
	{
		"name":"Boole_1__2.2-Mat.2",
		"mesh":0
	},
	{
		"name":"Boole_1__2.2-Mat.4",
		"mesh":1
	},
	{
		"name":"Boole_1__2.2-Mat.6",
		"mesh":2
	},
	{
		"name":"Boole_1__2.2-Mat.4",
		"mesh":3
	},
	{
		"name":"Boole_1__2.2-Mat.5",
		"mesh":4
	},
	{
		"name":"Boole_1__2.2-Mat.4",
		"mesh":5
	},
	{
		"name":"Cylinder.1-Mat.2",
		"mesh":6
	},
	{
		"name":"Cylinder.1-Mat",
		"mesh":7
	},
	{
		"name":"Cylinder.1-Mat.2",
		"mesh":8
	},
	{
		"name":"Cylinder.1-Mat",
		"mesh":9
	}],
	"meshes":[{
		"name":"Boole_1__2.2-Mat.2",
		"primitives":[{
			"attributes":{
				"POSITION":1
			},
			"indices":0,
			"material":0
		}]
	},
	{
		"name":"Boole_1__2.2-Mat.4",
		"primitives":[{
			"attributes":{
				"POSITION":3
			},
			"indices":2,
			"material":1
		}]
	},
	{
		"name":"Boole_1__2.2-Mat.6",
		"primitives":[{
			"attributes":{
				"POSITION":5
			},
			"indices":4,
			"material":2
		}]
	},
	{
		"name":"Boole_1__2.2-Mat.4",
		"primitives":[{
			"attributes":{
				"POSITION":7
			},
			"indices":6,
			"material":1
		}]
	},
	{
		"name":"Boole_1__2.2-Mat.5",
		"primitives":[{
			"attributes":{
				"POSITION":9
			},
			"indices":8,
			"material":3
		}]
	},
	{
		"name":"Boole_1__2.2-Mat.4",
		"primitives":[{
			"attributes":{
				"POSITION":11
			},
			"indices":10,
			"material":1
		}]
	},
	{
		"name":"Cylinder.1-Mat.2",
		"primitives":[{
			"attributes":{
				"POSITION":13
			},
			"indices":12,
			"material":0
		}]
	},
	{
		"name":"Cylinder.1-Mat",
		"primitives":[{
			"attributes":{
				"POSITION":15
			},
			"indices":14,
			"material":4
		}]
	},
	{
		"name":"Cylinder.1-Mat.2",
		"primitives":[{
			"attributes":{
				"POSITION":17
			},
			"indices":16,
			"material":0
		}]
	},
	{
		"name":"Cylinder.1-Mat",
		"primitives":[{
			"attributes":{
				"POSITION":19
			},
			"indices":18,
			"material":4
		}]
	}],
	"accessors":[{
		"bufferView":0,
		"type":"SCALAR",
		"max":[293],
		"componentType":5123,
		"count":1239,
		"min":[0],
		"byteOffset":0
	},
	{
		"bufferView":1,
		"type":"VEC3",
		"max":[125.39517211914063,
		124.577880859375,
		241.20370483398438],
		"componentType":5126,
		"count":294,
		"min":[-118.47115325927735,
		27.01157569885254,
		-257.5929260253906],
		"byteOffset":0
	},
	{
		"bufferView":2,
		"type":"SCALAR",
		"max":[9],
		"componentType":5123,
		"count":18,
		"min":[0],
		"byteOffset":0
	},
	{
		"bufferView":3,
		"type":"VEC3",
		"max":[76.08255004882813,
		69.1069564819336,
		225.07228088378907],
		"componentType":5126,
		"count":10,
		"min":[-69.15853881835938,
		28.77495574951172,
		167.95590209960938],
		"byteOffset":0
	},
	{
		"bufferView":4,
		"type":"SCALAR",
		"max":[47],
		"componentType":5123,
		"count":138,
		"min":[0],
		"byteOffset":0
	},
	{
		"bufferView":5,
		"type":"VEC3",
		"max":[93.88401794433594,
		114.01374053955078,
		241.20370483398438],
		"componentType":5126,
		"count":48,
		"min":[-86.95999908447266,
		85.0048828125,
		212.31858825683595],
		"byteOffset":0
	},
	{
		"bufferView":6,
		"type":"SCALAR",
		"max":[7],
		"componentType":5123,
		"count":18,
		"min":[0],
		"byteOffset":0
	},
	{
		"bufferView":7,
		"type":"VEC3",
		"max":[66.11502075195313,
		81.72535705566406,
		226.39044189453126],
		"componentType":5126,
		"count":8,
		"min":[-59.19099807739258,
		56.39065933227539,
		186.08645629882813],
		"byteOffset":0
	},
	{
		"bufferView":8,
		"type":"SCALAR",
		"max":[11],
		"componentType":5123,
		"count":30,
		"min":[0],
		"byteOffset":0
	},
	{
		"bufferView":9,
		"type":"VEC3",
		"max":[66.32987213134766,
		88.48238372802735,
		-224.06155395507813],
		"componentType":5126,
		"count":12,
		"min":[-59.405853271484378,
		67.75931549072266,
		-252.8564453125],
		"byteOffset":0
	},
	{
		"bufferView":10,
		"type":"SCALAR",
		"max":[39],
		"componentType":5123,
		"count":186,
		"min":[0],
		"byteOffset":0
	},
	{
		"bufferView":11,
		"type":"VEC3",
		"max":[67.0833740234375,
		128.58619689941407,
		165.83786010742188],
		"componentType":5126,
		"count":40,
		"min":[-60.15935516357422,
		82.78781127929688,
		-252.8564453125],
		"byteOffset":0
	},
	{
		"bufferView":12,
		"type":"SCALAR",
		"max":[101],
		"componentType":5123,
		"count":450,
		"min":[0],
		"byteOffset":0
	},
	{
		"bufferView":13,
		"type":"VEC3",
		"max":[25.0,
		34.674835205078128,
		34.8126335144043],
		"componentType":5126,
		"count":102,
		"min":[-223.30430603027345,
		-34.95043182373047,
		-34.8126335144043],
		"byteOffset":0
	},
	{
		"bufferView":14,
		"type":"SCALAR",
		"max":[601],
		"componentType":5123,
		"count":3450,
		"min":[0],
		"byteOffset":0
	},
	{
		"bufferView":15,
		"type":"VEC3",
		"max":[25.0,
		38.84562683105469,
		39.0],
		"componentType":5126,
		"count":602,
		"min":[-223.30430603027345,
		-39.15437316894531,
		-39.0],
		"byteOffset":0
	},
	{
		"bufferView":16,
		"type":"SCALAR",
		"max":[153],
		"componentType":5123,
		"count":600,
		"min":[0],
		"byteOffset":0
	},
	{
		"bufferView":17,
		"type":"VEC3",
		"max":[25.0,
		45.63727569580078,
		45.90922927856445],
		"componentType":5126,
		"count":154,
		"min":[-218.68850708007813,
		-46.0,
		-45.90922927856445],
		"byteOffset":0
	},
	{
		"bufferView":18,
		"type":"SCALAR",
		"max":[599],
		"componentType":5123,
		"count":3300,
		"min":[0],
		"byteOffset":0
	},
	{
		"bufferView":19,
		"type":"VEC3",
		"max":[25.0,
		45.63727569580078,
		45.90922927856445],
		"componentType":5126,
		"count":600,
		"min":[-218.68850708007813,
		-46.0,
		-45.90922927856445],
		"byteOffset":0
	}],
	"bufferViews":[{
		"buffer":0,
		"byteOffset":0,
		"byteLength":2478,
		"target":34963
	},
	{
		"buffer":0,
		"byteOffset":2480,
		"byteLength":3528,
		"target":34962
	},
	{
		"buffer":1,
		"byteOffset":0,
		"byteLength":36,
		"target":34963
	},
	{
		"buffer":1,
		"byteOffset":36,
		"byteLength":120,
		"target":34962
	},
	{
		"buffer":2,
		"byteOffset":0,
		"byteLength":276,
		"target":34963
	},
	{
		"buffer":2,
		"byteOffset":276,
		"byteLength":576,
		"target":34962
	},
	{
		"buffer":3,
		"byteOffset":0,
		"byteLength":36,
		"target":34963
	},
	{
		"buffer":3,
		"byteOffset":36,
		"byteLength":96,
		"target":34962
	},
	{
		"buffer":4,
		"byteOffset":0,
		"byteLength":60,
		"target":34963
	},
	{
		"buffer":4,
		"byteOffset":60,
		"byteLength":144,
		"target":34962
	},
	{
		"buffer":5,
		"byteOffset":0,
		"byteLength":372,
		"target":34963
	},
	{
		"buffer":5,
		"byteOffset":372,
		"byteLength":480,
		"target":34962
	},
	{
		"buffer":6,
		"byteOffset":0,
		"byteLength":900,
		"target":34963
	},
	{
		"buffer":6,
		"byteOffset":900,
		"byteLength":1224,
		"target":34962
	},
	{
		"buffer":7,
		"byteOffset":0,
		"byteLength":6900,
		"target":34963
	},
	{
		"buffer":7,
		"byteOffset":6900,
		"byteLength":7224,
		"target":34962
	},
	{
		"buffer":8,
		"byteOffset":0,
		"byteLength":1200,
		"target":34963
	},
	{
		"buffer":8,
		"byteOffset":1200,
		"byteLength":1848,
		"target":34962
	},
	{
		"buffer":9,
		"byteOffset":0,
		"byteLength":6600,
		"target":34963
	},
	{
		"buffer":9,
		"byteOffset":6600,
		"byteLength":7200,
		"target":34962
	}],
	"buffers":[{
		"uri":"data:application/octet-stream;base64,",
		"byteLength":6008
	},
	{
		"uri":"data:application/octet-stream;base64,",
		"byteLength":156
	},
	{
		"uri":"data:application/octet-stream;base64,",
		"byteLength":852
	},
	{
		"uri":"data:application/octet-stream;base64,",
		"byteLength":132
	},
	{
		"uri":"data:application/octet-stream;base64,",
		"byteLength":204
	},
	{
		"uri":"data:application/octet-stream;base64,",
		"byteLength":852
	},
	{
		"uri":"data:application/octet-stream;base64,",
		"byteLength":2124
	},
	{
		"uri":"data:application/octet-stream;base64,",
		"byteLength":14124
	},
	{
		"uri":"data:application/octet-stream;base64,",
		"byteLength":3048
	},
	{
		"uri":"data:application/octet-stream;base64,",
		"byteLength":13800
	}],
	"materials":[{
		"pbrMetallicRoughness":{
			"baseColorFactor":[1.0,
			0.4833333333333334,
			0.0,
			1.0],
			"metallicFactor":0.0,
			"roughnessFactor":0.5
		},
		"emissiveFactor":[0.0,
		0.0,
		0.0],
		"alphaMode":"OPAQUE",
		"doubleSided":false,
		"name":"Mat.2"
	},
	{
		"pbrMetallicRoughness":{
			"baseColorFactor":[0.14,
			0.14,
			0.14,
			1.0],
			"metallicFactor":0.0,
			"roughnessFactor":0.5
		},
		"emissiveFactor":[0.0,
		0.0,
		0.0],
		"alphaMode":"OPAQUE",
		"doubleSided":false,
		"name":"Mat.4"
	},
	{
		"pbrMetallicRoughness":{
			"baseColorFactor":[0.28,
			0.0,
			0.0,
			1.0],
			"metallicFactor":0.0,
			"roughnessFactor":0.14
		},
		"emissiveFactor":[1.0,
		0.0,
		0.0],
		"alphaMode":"OPAQUE",
		"doubleSided":false,
		"name":"Mat.6"
	},
	{
		"pbrMetallicRoughness":{
			"baseColorFactor":[0.8,
			0.8,
			0.8,
			1.0],
			"metallicFactor":0.0,
			"roughnessFactor":0.5
		},
		"emissiveFactor":[1.0,
		1.0,
		1.0],
		"alphaMode":"OPAQUE",
		"doubleSided":false,
		"name":"Mat.5"
	},
	{
		"pbrMetallicRoughness":{
			"baseColorFactor":[0.19,
			0.19,
			0.19,
			1.0],
			"metallicFactor":0.0,
			"roughnessFactor":0.5
		},
		"emissiveFactor":[0.0,
		0.0,
		0.0],
		"alphaMode":"OPAQUE",
		"doubleSided":false,
		"name":"Mat"
	}]
}